<svg width="152" height="152" viewBox="0 0 152 152" fill="none" xmlns="http://www.w3.org/2000/svg">
<circle cx="76" cy="76" r="74.5" stroke="white" stroke-width="3"/>
<path d="M13.5625 82.6797H12.4258V85H11.707V79.3125H13.375C13.6406 79.3177 13.8906 79.3555 14.125 79.4258C14.3594 79.4961 14.5638 79.6016 14.7383 79.7422C14.9154 79.8828 15.0534 80.0599 15.1523 80.2734C15.2539 80.4844 15.3047 80.7331 15.3047 81.0195C15.3047 81.2044 15.2773 81.3737 15.2227 81.5273C15.1706 81.681 15.0977 81.8203 15.0039 81.9453C14.9102 82.0703 14.7982 82.181 14.668 82.2773C14.5378 82.3737 14.3945 82.4557 14.2383 82.5234L15.4453 84.9531L15.4414 85H14.6797L13.5625 82.6797ZM12.4258 82.0859H13.3945C13.556 82.0833 13.7083 82.0586 13.8516 82.0117C13.9948 81.9622 14.1198 81.8919 14.2266 81.8008C14.3359 81.7096 14.4219 81.599 14.4844 81.4688C14.5469 81.3359 14.5781 81.1836 14.5781 81.0117C14.5781 80.8294 14.5482 80.6706 14.4883 80.5352C14.4284 80.3971 14.3451 80.2826 14.2383 80.1914C14.1315 80.0977 14.0039 80.0273 13.8555 79.9805C13.7096 79.9336 13.5495 79.9089 13.375 79.9062H12.4258V82.0859ZM19.6133 82.3711H17.2383V84.3867H20.0078V85H16.5156V79.3125H19.9727V79.9297H17.2383V81.7578H19.6133V82.3711ZM24.2656 83.5625C24.2656 83.388 24.2253 83.2409 24.1445 83.1211C24.0664 83.0013 23.9648 82.901 23.8398 82.8203C23.7148 82.737 23.5768 82.668 23.4258 82.6133C23.2773 82.5586 23.1341 82.5091 22.9961 82.4648C22.7956 82.3997 22.5911 82.3216 22.3828 82.2305C22.1771 82.1393 21.9883 82.0273 21.8164 81.8945C21.6471 81.7617 21.5078 81.6055 21.3984 81.4258C21.2917 81.2435 21.2383 81.0299 21.2383 80.7852C21.2383 80.5404 21.2917 80.3216 21.3984 80.1289C21.5078 79.9362 21.6497 79.7734 21.8242 79.6406C21.9987 79.5078 22.1966 79.4076 22.418 79.3398C22.6393 79.2695 22.862 79.2344 23.0859 79.2344C23.3333 79.2344 23.5716 79.276 23.8008 79.3594C24.0299 79.4401 24.2331 79.5547 24.4102 79.7031C24.5872 79.8516 24.7292 80.0312 24.8359 80.2422C24.9427 80.4531 24.9987 80.6888 25.0039 80.9492H24.2617C24.2409 80.7852 24.2005 80.6367 24.1406 80.5039C24.0807 80.3685 24.0013 80.2526 23.9023 80.1562C23.8034 80.0599 23.6849 79.9857 23.5469 79.9336C23.4115 79.8789 23.2578 79.8516 23.0859 79.8516C22.9479 79.8516 22.8125 79.8711 22.6797 79.9102C22.5495 79.9492 22.4323 80.0078 22.3281 80.0859C22.2266 80.1641 22.1445 80.2604 22.082 80.375C22.0221 80.4896 21.9922 80.6224 21.9922 80.7734C21.9948 80.9375 22.0365 81.0768 22.1172 81.1914C22.1979 81.3034 22.2995 81.3984 22.4219 81.4766C22.5469 81.5547 22.681 81.6198 22.8242 81.6719C22.9701 81.724 23.1068 81.7695 23.2344 81.8086C23.375 81.8529 23.5169 81.9036 23.6602 81.9609C23.8034 82.0156 23.9414 82.0794 24.0742 82.1523C24.207 82.2253 24.3307 82.3073 24.4453 82.3984C24.5599 82.4896 24.6602 82.5938 24.7461 82.7109C24.832 82.8255 24.8984 82.9531 24.9453 83.0938C24.9948 83.2318 25.0195 83.3854 25.0195 83.5547C25.0195 83.8099 24.9622 84.0326 24.8477 84.2227C24.7357 84.4128 24.5898 84.5716 24.4102 84.6992C24.2305 84.8242 24.0273 84.9193 23.8008 84.9844C23.5742 85.0469 23.3477 85.0781 23.1211 85.0781C22.8685 85.0781 22.6211 85.0391 22.3789 84.9609C22.1367 84.8828 21.9193 84.7708 21.7266 84.625C21.5365 84.4766 21.3815 84.2969 21.2617 84.0859C21.1419 83.8724 21.0781 83.6302 21.0703 83.3594H21.8086C21.832 83.5365 21.8802 83.694 21.9531 83.832C22.026 83.9674 22.1198 84.0833 22.2344 84.1797C22.349 84.2734 22.4805 84.3451 22.6289 84.3945C22.7799 84.4414 22.944 84.4648 23.1211 84.4648C23.2617 84.4648 23.3997 84.4479 23.5352 84.4141C23.6732 84.3776 23.7956 84.3229 23.9023 84.25C24.0091 84.1745 24.0964 84.0807 24.1641 83.9688C24.2318 83.8542 24.2656 83.7188 24.2656 83.5625ZM29.9297 79.9297H28.1719V85H27.4688V79.9297H25.7109V79.3125H29.9297V79.9297ZM33.6133 83.5273H31.7148L31.2578 85H30.5352L32.3711 79.3125H32.9766L34.7812 85H34.0625L33.6133 83.5273ZM31.9102 82.8984H33.4219L32.6719 80.4297L31.9102 82.8984ZM39.2734 79.3125L39.2812 83.1641C39.276 83.4297 39.2279 83.6784 39.1367 83.9102C39.0456 84.1419 38.918 84.3451 38.7539 84.5195C38.5898 84.6914 38.3945 84.8281 38.168 84.9297C37.9414 85.0286 37.6927 85.0781 37.4219 85.0781C37.1458 85.0781 36.8945 85.0286 36.668 84.9297C36.4414 84.8307 36.2474 84.6953 36.0859 84.5234C35.9245 84.349 35.7982 84.1458 35.707 83.9141C35.6159 83.6797 35.569 83.4297 35.5664 83.1641L35.5742 79.3125H36.2617L36.2773 83.1641C36.2799 83.3333 36.306 83.4961 36.3555 83.6523C36.4076 83.8086 36.4805 83.9466 36.5742 84.0664C36.6706 84.1862 36.7891 84.2826 36.9297 84.3555C37.0729 84.4284 37.237 84.4648 37.4219 84.4648C37.6068 84.4648 37.7695 84.4297 37.9102 84.3594C38.0508 84.2865 38.168 84.1901 38.2617 84.0703C38.3581 83.9479 38.431 83.8086 38.4805 83.6523C38.5299 83.4961 38.5573 83.3333 38.5625 83.1641L38.5742 79.3125H39.2734ZM42.3906 82.6797H41.2539V85H40.5352V79.3125H42.2031C42.4688 79.3177 42.7188 79.3555 42.9531 79.4258C43.1875 79.4961 43.3919 79.6016 43.5664 79.7422C43.7435 79.8828 43.8815 80.0599 43.9805 80.2734C44.082 80.4844 44.1328 80.7331 44.1328 81.0195C44.1328 81.2044 44.1055 81.3737 44.0508 81.5273C43.9987 81.681 43.9258 81.8203 43.832 81.9453C43.7383 82.0703 43.6263 82.181 43.4961 82.2773C43.3659 82.3737 43.2227 82.4557 43.0664 82.5234L44.2734 84.9531L44.2695 85H43.5078L42.3906 82.6797ZM41.2539 82.0859H42.2227C42.3841 82.0833 42.5365 82.0586 42.6797 82.0117C42.8229 81.9622 42.9479 81.8919 43.0547 81.8008C43.1641 81.7096 43.25 81.599 43.3125 81.4688C43.375 81.3359 43.4062 81.1836 43.4062 81.0117C43.4062 80.8294 43.3763 80.6706 43.3164 80.5352C43.2565 80.3971 43.1732 80.2826 43.0664 80.1914C42.9596 80.0977 42.832 80.0273 42.6836 79.9805C42.5378 79.9336 42.3776 79.9089 42.2031 79.9062H41.2539V82.0859ZM48.0273 83.5273H46.1289L45.6719 85H44.9492L46.7852 79.3125H47.3906L49.1953 85H48.4766L48.0273 83.5273ZM46.3242 82.8984H47.8359L47.0859 80.4297L46.3242 82.8984ZM53.6797 85H52.9453L50.7383 80.75L50.7266 85H49.9961V79.3125H50.7305L52.9375 83.5547L52.9492 79.3125H53.6797V85ZM58.7578 79.9297H57V85H56.2969V79.9297H54.5391V79.3125H58.7578V79.9297ZM62.7031 83.5625C62.7031 83.388 62.6628 83.2409 62.582 83.1211C62.5039 83.0013 62.4023 82.901 62.2773 82.8203C62.1523 82.737 62.0143 82.668 61.8633 82.6133C61.7148 82.5586 61.5716 82.5091 61.4336 82.4648C61.2331 82.3997 61.0286 82.3216 60.8203 82.2305C60.6146 82.1393 60.4258 82.0273 60.2539 81.8945C60.0846 81.7617 59.9453 81.6055 59.8359 81.4258C59.7292 81.2435 59.6758 81.0299 59.6758 80.7852C59.6758 80.5404 59.7292 80.3216 59.8359 80.1289C59.9453 79.9362 60.0872 79.7734 60.2617 79.6406C60.4362 79.5078 60.6341 79.4076 60.8555 79.3398C61.0768 79.2695 61.2995 79.2344 61.5234 79.2344C61.7708 79.2344 62.0091 79.276 62.2383 79.3594C62.4674 79.4401 62.6706 79.5547 62.8477 79.7031C63.0247 79.8516 63.1667 80.0312 63.2734 80.2422C63.3802 80.4531 63.4362 80.6888 63.4414 80.9492H62.6992C62.6784 80.7852 62.638 80.6367 62.5781 80.5039C62.5182 80.3685 62.4388 80.2526 62.3398 80.1562C62.2409 80.0599 62.1224 79.9857 61.9844 79.9336C61.849 79.8789 61.6953 79.8516 61.5234 79.8516C61.3854 79.8516 61.25 79.8711 61.1172 79.9102C60.987 79.9492 60.8698 80.0078 60.7656 80.0859C60.6641 80.1641 60.582 80.2604 60.5195 80.375C60.4596 80.4896 60.4297 80.6224 60.4297 80.7734C60.4323 80.9375 60.474 81.0768 60.5547 81.1914C60.6354 81.3034 60.737 81.3984 60.8594 81.4766C60.9844 81.5547 61.1185 81.6198 61.2617 81.6719C61.4076 81.724 61.5443 81.7695 61.6719 81.8086C61.8125 81.8529 61.9544 81.9036 62.0977 81.9609C62.2409 82.0156 62.3789 82.0794 62.5117 82.1523C62.6445 82.2253 62.7682 82.3073 62.8828 82.3984C62.9974 82.4896 63.0977 82.5938 63.1836 82.7109C63.2695 82.8255 63.3359 82.9531 63.3828 83.0938C63.4323 83.2318 63.457 83.3854 63.457 83.5547C63.457 83.8099 63.3997 84.0326 63.2852 84.2227C63.1732 84.4128 63.0273 84.5716 62.8477 84.6992C62.668 84.8242 62.4648 84.9193 62.2383 84.9844C62.0117 85.0469 61.7852 85.0781 61.5586 85.0781C61.306 85.0781 61.0586 85.0391 60.8164 84.9609C60.5742 84.8828 60.3568 84.7708 60.1641 84.625C59.974 84.4766 59.819 84.2969 59.6992 84.0859C59.5794 83.8724 59.5156 83.6302 59.5078 83.3594H60.2461C60.2695 83.5365 60.3177 83.694 60.3906 83.832C60.4635 83.9674 60.5573 84.0833 60.6719 84.1797C60.7865 84.2734 60.918 84.3451 61.0664 84.3945C61.2174 84.4414 61.3815 84.4648 61.5586 84.4648C61.6992 84.4648 61.8372 84.4479 61.9727 84.4141C62.1107 84.3776 62.2331 84.3229 62.3398 84.25C62.4466 84.1745 62.5339 84.0807 62.6016 83.9688C62.6693 83.8542 62.7031 83.7188 62.7031 83.5625ZM69.0742 83.543C69.0742 83.3685 69.1003 83.207 69.1523 83.0586C69.2044 82.9102 69.2773 82.7721 69.3711 82.6445C69.4648 82.5143 69.5768 82.3919 69.707 82.2773C69.8372 82.1602 69.9818 82.0456 70.1406 81.9336C69.9661 81.6966 69.8268 81.4727 69.7227 81.2617C69.6211 81.0508 69.5703 80.8307 69.5703 80.6016C69.5703 80.3802 69.6029 80.1849 69.668 80.0156C69.7357 79.8438 69.8307 79.7005 69.9531 79.5859C70.0755 79.4688 70.2227 79.3802 70.3945 79.3203C70.5664 79.2604 70.7591 79.2305 70.9727 79.2305C71.1576 79.2305 71.3255 79.263 71.4766 79.3281C71.6276 79.3932 71.7552 79.4818 71.8594 79.5938C71.9661 79.7031 72.0482 79.8307 72.1055 79.9766C72.1628 80.1224 72.1914 80.276 72.1914 80.4375C72.1914 80.5755 72.1706 80.7018 72.1289 80.8164C72.0898 80.9284 72.0339 81.0339 71.9609 81.1328C71.8906 81.2318 71.806 81.3255 71.707 81.4141C71.6081 81.5026 71.5013 81.5898 71.3867 81.6758L71.0195 81.9883L72.2188 83.5625C72.3099 83.3958 72.3815 83.2135 72.4336 83.0156C72.4857 82.8177 72.513 82.6042 72.5156 82.375H73.168C73.168 82.7083 73.1198 83.0182 73.0234 83.3047C72.9297 83.5885 72.7917 83.8451 72.6094 84.0742L73.3164 85H72.4531L72.1289 84.5703C71.9362 84.7344 71.724 84.8607 71.4922 84.9492C71.2604 85.0352 71.0169 85.0781 70.7617 85.0781C70.5039 85.0781 70.2708 85.0404 70.0625 84.9648C69.8542 84.8893 69.6771 84.7839 69.5312 84.6484C69.3854 84.513 69.2721 84.3516 69.1914 84.1641C69.1133 83.974 69.0742 83.7669 69.0742 83.543ZM70.7617 84.4922C70.9466 84.4922 71.125 84.4583 71.2969 84.3906C71.4688 84.3229 71.6289 84.2266 71.7773 84.1016L70.5156 82.418L70.4062 82.5117C70.276 82.6185 70.1706 82.7227 70.0898 82.8242C70.0091 82.9258 69.9466 83.0221 69.9023 83.1133C69.8607 83.2018 69.832 83.2839 69.8164 83.3594C69.8034 83.4323 69.7969 83.4935 69.7969 83.543C69.7969 83.6758 69.8177 83.7995 69.8594 83.9141C69.901 84.0286 69.9622 84.1289 70.043 84.2148C70.1237 84.3008 70.224 84.3685 70.3438 84.418C70.4635 84.4674 70.6029 84.4922 70.7617 84.4922ZM70.2969 80.5938C70.2969 80.7396 70.3294 80.8893 70.3945 81.043C70.4596 81.194 70.5508 81.3542 70.668 81.5234L71.125 81.1602C71.2057 81.1055 71.2721 81.0482 71.3242 80.9883C71.3763 80.9284 71.4167 80.8685 71.4453 80.8086C71.474 80.7461 71.4935 80.6836 71.5039 80.6211C71.5169 80.5586 71.5234 80.4974 71.5234 80.4375C71.5234 80.3594 71.5104 80.2839 71.4844 80.2109C71.4609 80.1354 71.4245 80.0703 71.375 80.0156C71.3281 79.9583 71.2708 79.9128 71.2031 79.8789C71.1354 79.8424 71.0586 79.8242 70.9727 79.8242C70.8607 79.8242 70.7617 79.8451 70.6758 79.8867C70.5924 79.9284 70.5221 79.9844 70.4648 80.0547C70.4102 80.125 70.3685 80.207 70.3398 80.3008C70.3112 80.3919 70.2969 80.4896 70.2969 80.5938ZM79.7383 79.3125L80.6641 82.1562L81.6641 79.3125H82.5625V85H81.8594V82.7305L81.918 80.3555L80.8672 83.418H80.4531L79.4883 80.4375L79.5469 82.7305V85H78.8438V79.3125H79.7383ZM86.8789 82.3711H84.5039V84.3867H87.2734V85H83.7812V79.3125H87.2383V79.9297H84.5039V81.7578H86.8789V82.3711ZM92.1172 85H91.3828L89.1758 80.75L89.1641 85H88.4336V79.3125H89.168L91.375 83.5547L91.3867 79.3125H92.1172V85ZM95.5547 79.4883C95.5547 79.6107 95.5391 79.7396 95.5078 79.875C95.4792 80.0104 95.4349 80.1445 95.375 80.2773C95.3177 80.4076 95.2474 80.5326 95.1641 80.6523C95.0807 80.7721 94.9844 80.8789 94.875 80.9727L94.4805 80.6914C94.6029 80.5065 94.694 80.3177 94.7539 80.125C94.8164 79.9323 94.8477 79.724 94.8477 79.5V78.9141H95.5547V79.4883ZM101.141 83.5625C101.141 83.388 101.1 83.2409 101.02 83.1211C100.941 83.0013 100.84 82.901 100.715 82.8203C100.59 82.737 100.452 82.668 100.301 82.6133C100.152 82.5586 100.009 82.5091 99.8711 82.4648C99.6706 82.3997 99.4661 82.3216 99.2578 82.2305C99.0521 82.1393 98.8633 82.0273 98.6914 81.8945C98.5221 81.7617 98.3828 81.6055 98.2734 81.4258C98.1667 81.2435 98.1133 81.0299 98.1133 80.7852C98.1133 80.5404 98.1667 80.3216 98.2734 80.1289C98.3828 79.9362 98.5247 79.7734 98.6992 79.6406C98.8737 79.5078 99.0716 79.4076 99.293 79.3398C99.5143 79.2695 99.737 79.2344 99.9609 79.2344C100.208 79.2344 100.447 79.276 100.676 79.3594C100.905 79.4401 101.108 79.5547 101.285 79.7031C101.462 79.8516 101.604 80.0312 101.711 80.2422C101.818 80.4531 101.874 80.6888 101.879 80.9492H101.137C101.116 80.7852 101.076 80.6367 101.016 80.5039C100.956 80.3685 100.876 80.2526 100.777 80.1562C100.678 80.0599 100.56 79.9857 100.422 79.9336C100.286 79.8789 100.133 79.8516 99.9609 79.8516C99.8229 79.8516 99.6875 79.8711 99.5547 79.9102C99.4245 79.9492 99.3073 80.0078 99.2031 80.0859C99.1016 80.1641 99.0195 80.2604 98.957 80.375C98.8971 80.4896 98.8672 80.6224 98.8672 80.7734C98.8698 80.9375 98.9115 81.0768 98.9922 81.1914C99.0729 81.3034 99.1745 81.3984 99.2969 81.4766C99.4219 81.5547 99.556 81.6198 99.6992 81.6719C99.8451 81.724 99.9818 81.7695 100.109 81.8086C100.25 81.8529 100.392 81.9036 100.535 81.9609C100.678 82.0156 100.816 82.0794 100.949 82.1523C101.082 82.2253 101.206 82.3073 101.32 82.3984C101.435 82.4896 101.535 82.5938 101.621 82.7109C101.707 82.8255 101.773 82.9531 101.82 83.0938C101.87 83.2318 101.895 83.3854 101.895 83.5547C101.895 83.8099 101.837 84.0326 101.723 84.2227C101.611 84.4128 101.465 84.5716 101.285 84.6992C101.105 84.8242 100.902 84.9193 100.676 84.9844C100.449 85.0469 100.223 85.0781 99.9961 85.0781C99.7435 85.0781 99.4961 85.0391 99.2539 84.9609C99.0117 84.8828 98.7943 84.7708 98.6016 84.625C98.4115 84.4766 98.2565 84.2969 98.1367 84.0859C98.0169 83.8724 97.9531 83.6302 97.9453 83.3594H98.6836C98.707 83.5365 98.7552 83.694 98.8281 83.832C98.901 83.9674 98.9948 84.0833 99.1094 84.1797C99.224 84.2734 99.3555 84.3451 99.5039 84.3945C99.6549 84.4414 99.819 84.4648 99.9961 84.4648C100.137 84.4648 100.275 84.4479 100.41 84.4141C100.548 84.3776 100.671 84.3229 100.777 84.25C100.884 84.1745 100.971 84.0807 101.039 83.9688C101.107 83.8542 101.141 83.7188 101.141 83.5625ZM110.938 82.4883H108.57V85H107.84V79.3125H111.332V79.9297H108.57V81.875H110.938V82.4883ZM115.293 83.5273H113.395L112.938 85H112.215L114.051 79.3125H114.656L116.461 85H115.742L115.293 83.5273ZM113.59 82.8984H115.102L114.352 80.4297L113.59 82.8984ZM120.359 83.5625C120.359 83.388 120.319 83.2409 120.238 83.1211C120.16 83.0013 120.059 82.901 119.934 82.8203C119.809 82.737 119.671 82.668 119.52 82.6133C119.371 82.5586 119.228 82.5091 119.09 82.4648C118.889 82.3997 118.685 82.3216 118.477 82.2305C118.271 82.1393 118.082 82.0273 117.91 81.8945C117.741 81.7617 117.602 81.6055 117.492 81.4258C117.385 81.2435 117.332 81.0299 117.332 80.7852C117.332 80.5404 117.385 80.3216 117.492 80.1289C117.602 79.9362 117.743 79.7734 117.918 79.6406C118.092 79.5078 118.29 79.4076 118.512 79.3398C118.733 79.2695 118.956 79.2344 119.18 79.2344C119.427 79.2344 119.665 79.276 119.895 79.3594C120.124 79.4401 120.327 79.5547 120.504 79.7031C120.681 79.8516 120.823 80.0312 120.93 80.2422C121.036 80.4531 121.092 80.6888 121.098 80.9492H120.355C120.335 80.7852 120.294 80.6367 120.234 80.5039C120.174 80.3685 120.095 80.2526 119.996 80.1562C119.897 80.0599 119.779 79.9857 119.641 79.9336C119.505 79.8789 119.352 79.8516 119.18 79.8516C119.042 79.8516 118.906 79.8711 118.773 79.9102C118.643 79.9492 118.526 80.0078 118.422 80.0859C118.32 80.1641 118.238 80.2604 118.176 80.375C118.116 80.4896 118.086 80.6224 118.086 80.7734C118.089 80.9375 118.13 81.0768 118.211 81.1914C118.292 81.3034 118.393 81.3984 118.516 81.4766C118.641 81.5547 118.775 81.6198 118.918 81.6719C119.064 81.724 119.201 81.7695 119.328 81.8086C119.469 81.8529 119.611 81.9036 119.754 81.9609C119.897 82.0156 120.035 82.0794 120.168 82.1523C120.301 82.2253 120.424 82.3073 120.539 82.3984C120.654 82.4896 120.754 82.5938 120.84 82.7109C120.926 82.8255 120.992 82.9531 121.039 83.0938C121.089 83.2318 121.113 83.3854 121.113 83.5547C121.113 83.8099 121.056 84.0326 120.941 84.2227C120.829 84.4128 120.684 84.5716 120.504 84.6992C120.324 84.8242 120.121 84.9193 119.895 84.9844C119.668 85.0469 119.441 85.0781 119.215 85.0781C118.962 85.0781 118.715 85.0391 118.473 84.9609C118.23 84.8828 118.013 84.7708 117.82 84.625C117.63 84.4766 117.475 84.2969 117.355 84.0859C117.236 83.8724 117.172 83.6302 117.164 83.3594H117.902C117.926 83.5365 117.974 83.694 118.047 83.832C118.12 83.9674 118.214 84.0833 118.328 84.1797C118.443 84.2734 118.574 84.3451 118.723 84.3945C118.874 84.4414 119.038 84.4648 119.215 84.4648C119.355 84.4648 119.493 84.4479 119.629 84.4141C119.767 84.3776 119.889 84.3229 119.996 84.25C120.103 84.1745 120.19 84.0807 120.258 83.9688C120.326 83.8542 120.359 83.7188 120.359 83.5625ZM125.754 85H125.07V82.3711H122.738V85H122.059V79.3125H122.738V81.7578H125.07V79.3125H125.754V85ZM126.992 79.3125H130.43V79.9414H129.066V84.375H130.43V85H126.992V84.375H128.324V79.9414H126.992V79.3125ZM135.496 82.4844C135.493 82.6875 135.475 82.8932 135.441 83.1016C135.41 83.3073 135.361 83.5065 135.293 83.6992C135.225 83.8919 135.138 84.0716 135.031 84.2383C134.927 84.4049 134.802 84.5508 134.656 84.6758C134.51 84.8008 134.342 84.8997 134.152 84.9727C133.965 85.043 133.754 85.0781 133.52 85.0781C133.285 85.0781 133.073 85.043 132.883 84.9727C132.695 84.8997 132.529 84.8008 132.383 84.6758C132.237 84.5508 132.111 84.4049 132.004 84.2383C131.897 84.069 131.809 83.888 131.738 83.6953C131.671 83.5026 131.62 83.3034 131.586 83.0977C131.552 82.8919 131.534 82.6875 131.531 82.4844V81.8359C131.534 81.6328 131.551 81.4284 131.582 81.2227C131.616 81.0143 131.667 80.8138 131.734 80.6211C131.805 80.4284 131.892 80.2487 131.996 80.082C132.103 79.9128 132.229 79.7656 132.375 79.6406C132.521 79.513 132.688 79.4141 132.875 79.3438C133.065 79.2708 133.277 79.2344 133.512 79.2344C133.746 79.2344 133.958 79.2708 134.148 79.3438C134.339 79.4141 134.507 79.5117 134.652 79.6367C134.798 79.7617 134.923 79.9089 135.027 80.0781C135.134 80.2448 135.221 80.4245 135.289 80.6172C135.359 80.8099 135.41 81.0104 135.441 81.2188C135.475 81.4271 135.493 81.6328 135.496 81.8359V82.4844ZM134.781 81.8281C134.779 81.6927 134.77 81.5521 134.754 81.4062C134.738 81.2578 134.711 81.112 134.672 80.9688C134.635 80.8229 134.586 80.6849 134.523 80.5547C134.461 80.4219 134.383 80.306 134.289 80.207C134.195 80.1055 134.085 80.026 133.957 79.9688C133.829 79.9089 133.681 79.8789 133.512 79.8789C133.345 79.8789 133.198 79.9089 133.07 79.9688C132.943 80.0286 132.832 80.1094 132.738 80.2109C132.645 80.3099 132.566 80.4258 132.504 80.5586C132.441 80.6888 132.391 80.8268 132.352 80.9727C132.315 81.1159 132.288 81.2617 132.27 81.4102C132.254 81.556 132.245 81.6953 132.242 81.8281V82.4844C132.245 82.6172 132.254 82.7578 132.27 82.9062C132.288 83.0547 132.316 83.2018 132.355 83.3477C132.395 83.4909 132.445 83.6289 132.508 83.7617C132.57 83.8945 132.648 84.0117 132.742 84.1133C132.836 84.2122 132.947 84.2917 133.074 84.3516C133.202 84.4115 133.35 84.4414 133.52 84.4414C133.689 84.4414 133.837 84.4115 133.965 84.3516C134.095 84.2917 134.206 84.2122 134.297 84.1133C134.391 84.0117 134.467 83.8958 134.527 83.7656C134.59 83.6328 134.639 83.4948 134.676 83.3516C134.715 83.2057 134.741 83.0586 134.754 82.9102C134.77 82.7617 134.779 82.6198 134.781 82.4844V81.8281ZM140.164 85H139.43L137.223 80.75L137.211 85H136.48V79.3125H137.215L139.422 83.5547L139.434 79.3125H140.164V85Z" fill="white"/>
<path d="M14.675 60.5C14.855 60.47 15.055 60.45 15.275 60.44C15.505 60.42 15.735 60.405 15.965 60.395C16.205 60.375 16.435 60.365 16.655 60.365C16.875 60.355 17.07 60.35 17.24 60.35C18.07 60.35 18.76 60.48 19.31 60.74C19.87 60.99 20.315 61.35 20.645 61.82C20.985 62.28 21.225 62.835 21.365 63.485C21.505 64.135 21.575 64.86 21.575 65.66C21.575 66.39 21.505 67.09 21.365 67.76C21.235 68.42 21 69.005 20.66 69.515C20.32 70.015 19.86 70.415 19.28 70.715C18.7 71.015 17.97 71.165 17.09 71.165C16.96 71.165 16.785 71.16 16.565 71.15C16.345 71.14 16.115 71.125 15.875 71.105C15.635 71.095 15.405 71.08 15.185 71.06C14.965 71.05 14.795 71.035 14.675 71.015V60.5ZM17.435 62.09C17.275 62.09 17.11 62.095 16.94 62.105C16.78 62.105 16.655 62.115 16.565 62.135V69.365C16.595 69.375 16.645 69.385 16.715 69.395C16.795 69.395 16.875 69.4 16.955 69.41C17.045 69.41 17.125 69.415 17.195 69.425C17.275 69.425 17.33 69.425 17.36 69.425C17.81 69.425 18.18 69.32 18.47 69.11C18.76 68.9 18.985 68.62 19.145 68.27C19.315 67.92 19.43 67.52 19.49 67.07C19.56 66.61 19.595 66.13 19.595 65.63C19.595 65.17 19.565 64.725 19.505 64.295C19.455 63.865 19.35 63.49 19.19 63.17C19.04 62.84 18.82 62.58 18.53 62.39C18.25 62.19 17.885 62.09 17.435 62.09ZM23.0623 65.75C23.0623 63.97 23.3673 62.615 23.9773 61.685C24.5873 60.755 25.5173 60.29 26.7673 60.29C27.4173 60.29 27.9773 60.42 28.4473 60.68C28.9173 60.93 29.3023 61.295 29.6023 61.775C29.9023 62.245 30.1223 62.82 30.2623 63.5C30.4123 64.17 30.4873 64.92 30.4873 65.75C30.4873 67.53 30.1723 68.885 29.5423 69.815C28.9223 70.745 27.9973 71.21 26.7673 71.21C26.1073 71.21 25.5423 71.085 25.0723 70.835C24.6123 70.575 24.2323 70.21 23.9323 69.74C23.6323 69.26 23.4123 68.685 23.2723 68.015C23.1323 67.335 23.0623 66.58 23.0623 65.75ZM25.0423 65.75C25.0423 66.28 25.0723 66.775 25.1323 67.235C25.1923 67.685 25.2923 68.075 25.4323 68.405C25.5723 68.735 25.7473 68.995 25.9573 69.185C26.1773 69.375 26.4473 69.47 26.7673 69.47C27.3473 69.47 27.7823 69.175 28.0723 68.585C28.3623 67.995 28.5073 67.05 28.5073 65.75C28.5073 65.24 28.4773 64.76 28.4173 64.31C28.3573 63.85 28.2573 63.455 28.1173 63.125C27.9873 62.785 27.8123 62.52 27.5923 62.33C27.3723 62.13 27.0973 62.03 26.7673 62.03C25.6173 62.03 25.0423 63.27 25.0423 65.75ZM38.0393 62.24H35.5643V71H33.6743V62.24H31.1843V60.5H38.0393V62.24ZM48.1872 71H42.6072V60.5H44.4972V69.26H48.1872V71ZM48.1235 65.75C48.1235 63.97 48.4285 62.615 49.0385 61.685C49.6485 60.755 50.5785 60.29 51.8285 60.29C52.4785 60.29 53.0385 60.42 53.5085 60.68C53.9785 60.93 54.3635 61.295 54.6635 61.775C54.9635 62.245 55.1835 62.82 55.3235 63.5C55.4735 64.17 55.5485 64.92 55.5485 65.75C55.5485 67.53 55.2335 68.885 54.6035 69.815C53.9835 70.745 53.0585 71.21 51.8285 71.21C51.1685 71.21 50.6035 71.085 50.1335 70.835C49.6735 70.575 49.2935 70.21 48.9935 69.74C48.6935 69.26 48.4735 68.685 48.3335 68.015C48.1935 67.335 48.1235 66.58 48.1235 65.75ZM50.1035 65.75C50.1035 66.28 50.1335 66.775 50.1935 67.235C50.2535 67.685 50.3535 68.075 50.4935 68.405C50.6335 68.735 50.8085 68.995 51.0185 69.185C51.2385 69.375 51.5085 69.47 51.8285 69.47C52.4085 69.47 52.8435 69.175 53.1335 68.585C53.4235 67.995 53.5685 67.05 53.5685 65.75C53.5685 65.24 53.5385 64.76 53.4785 64.31C53.4185 63.85 53.3185 63.455 53.1785 63.125C53.0485 62.785 52.8735 62.52 52.6535 62.33C52.4335 62.13 52.1585 62.03 51.8285 62.03C50.6785 62.03 50.1035 63.27 50.1035 65.75ZM63.2095 70.58C62.9495 70.8 62.5995 70.96 62.1595 71.06C61.7295 71.16 61.2995 71.21 60.8695 71.21C60.3295 71.21 59.8245 71.12 59.3545 70.94C58.8945 70.75 58.4895 70.44 58.1395 70.01C57.7895 69.58 57.5145 69.015 57.3145 68.315C57.1145 67.615 57.0145 66.755 57.0145 65.735C57.0145 64.675 57.1245 63.795 57.3445 63.095C57.5745 62.395 57.8695 61.84 58.2295 61.43C58.5995 61.01 59.0195 60.715 59.4895 60.545C59.9595 60.375 60.4345 60.29 60.9145 60.29C61.4045 60.29 61.8295 60.33 62.1895 60.41C62.5595 60.49 62.8595 60.58 63.0895 60.68L62.7145 62.345C62.5245 62.245 62.2995 62.17 62.0395 62.12C61.7895 62.06 61.4895 62.03 61.1395 62.03C60.4495 62.03 59.9195 62.33 59.5495 62.93C59.1795 63.53 58.9945 64.47 58.9945 65.75C58.9945 66.3 59.0345 66.805 59.1145 67.265C59.2045 67.715 59.3395 68.105 59.5195 68.435C59.7095 68.765 59.9445 69.02 60.2245 69.2C60.5145 69.38 60.8595 69.47 61.2595 69.47C61.6095 69.47 61.9095 69.425 62.1595 69.335C62.4095 69.235 62.6345 69.12 62.8345 68.99L63.2095 70.58ZM68.3837 68.63H65.9087L65.2937 71H63.4187L66.4637 60.425H67.9487L71.0087 71H69.0287L68.3837 68.63ZM66.3137 67.07H68.0537L67.4537 64.625L67.2137 62.975H67.1537L66.8987 64.64L66.3137 67.07ZM77.8333 71H72.2533V60.5H74.1433V69.26H77.8333V71ZM88.0736 62.24H85.5986V71H83.7086V62.24H81.2186V60.5H88.0736V62.24ZM88.7694 65.75C88.7694 63.97 89.0744 62.615 89.6844 61.685C90.2944 60.755 91.2244 60.29 92.4744 60.29C93.1244 60.29 93.6844 60.42 94.1544 60.68C94.6244 60.93 95.0094 61.295 95.3094 61.775C95.6094 62.245 95.8294 62.82 95.9694 63.5C96.1194 64.17 96.1944 64.92 96.1944 65.75C96.1944 67.53 95.8794 68.885 95.2494 69.815C94.6294 70.745 93.7044 71.21 92.4744 71.21C91.8144 71.21 91.2494 71.085 90.7794 70.835C90.3194 70.575 89.9394 70.21 89.6394 69.74C89.3394 69.26 89.1194 68.685 88.9794 68.015C88.8394 67.335 88.7694 66.58 88.7694 65.75ZM90.7494 65.75C90.7494 66.28 90.7794 66.775 90.8394 67.235C90.8994 67.685 90.9994 68.075 91.1394 68.405C91.2794 68.735 91.4544 68.995 91.6644 69.185C91.8844 69.375 92.1544 69.47 92.4744 69.47C93.0544 69.47 93.4894 69.175 93.7794 68.585C94.0694 67.995 94.2144 67.05 94.2144 65.75C94.2144 65.24 94.1844 64.76 94.1244 64.31C94.0644 63.85 93.9644 63.455 93.8244 63.125C93.6944 62.785 93.5194 62.52 93.2994 62.33C93.0794 62.13 92.8044 62.03 92.4744 62.03C91.3244 62.03 90.7494 63.27 90.7494 65.75ZM97.9004 60.605C98.3104 60.515 98.7504 60.45 99.2204 60.41C99.6904 60.37 100.095 60.35 100.435 60.35C100.865 60.35 101.285 60.395 101.695 60.485C102.105 60.565 102.465 60.72 102.775 60.95C103.095 61.17 103.35 61.475 103.54 61.865C103.74 62.245 103.84 62.73 103.84 63.32C103.84 64.17 103.68 64.865 103.36 65.405C103.05 65.935 102.62 66.3 102.07 66.5L102.67 66.98L104.605 71H102.43L100.6 66.86L99.7904 66.665V71H97.9004V60.605ZM99.7904 65.375H100.435C100.905 65.375 101.26 65.235 101.5 64.955C101.74 64.665 101.86 64.22 101.86 63.62C101.86 63.17 101.76 62.805 101.56 62.525C101.36 62.235 101.045 62.09 100.615 62.09C100.455 62.09 100.3 62.095 100.15 62.105C100 62.115 99.8804 62.135 99.7904 62.165V65.375ZM105.409 65.75C105.409 63.97 105.714 62.615 106.324 61.685C106.934 60.755 107.864 60.29 109.114 60.29C109.764 60.29 110.324 60.42 110.794 60.68C111.264 60.93 111.649 61.295 111.949 61.775C112.249 62.245 112.469 62.82 112.609 63.5C112.759 64.17 112.834 64.92 112.834 65.75C112.834 67.53 112.519 68.885 111.889 69.815C111.269 70.745 110.344 71.21 109.114 71.21C108.454 71.21 107.889 71.085 107.419 70.835C106.959 70.575 106.579 70.21 106.279 69.74C105.979 69.26 105.759 68.685 105.619 68.015C105.479 67.335 105.409 66.58 105.409 65.75ZM107.389 65.75C107.389 66.28 107.419 66.775 107.479 67.235C107.539 67.685 107.639 68.075 107.779 68.405C107.919 68.735 108.094 68.995 108.304 69.185C108.524 69.375 108.794 69.47 109.114 69.47C109.694 69.47 110.129 69.175 110.419 68.585C110.709 67.995 110.854 67.05 110.854 65.75C110.854 65.24 110.824 64.76 110.764 64.31C110.704 63.85 110.604 63.455 110.464 63.125C110.334 62.785 110.159 62.52 109.939 62.33C109.719 62.13 109.444 62.03 109.114 62.03C107.964 62.03 107.389 63.27 107.389 65.75ZM116.85 65.84L116.16 63.995H116.085L116.325 65.81V71H114.54V60.425H115.995L119.01 65.705L119.655 67.52H119.745L119.505 65.735V60.5H121.29V71.075H119.835L116.85 65.84ZM129.54 62.24H127.065V71H125.175V62.24H122.685V60.5H129.54V62.24ZM130.236 65.75C130.236 63.97 130.541 62.615 131.151 61.685C131.761 60.755 132.691 60.29 133.941 60.29C134.591 60.29 135.151 60.42 135.621 60.68C136.091 60.93 136.476 61.295 136.776 61.775C137.076 62.245 137.296 62.82 137.436 63.5C137.586 64.17 137.661 64.92 137.661 65.75C137.661 67.53 137.346 68.885 136.716 69.815C136.096 70.745 135.171 71.21 133.941 71.21C133.281 71.21 132.716 71.085 132.246 70.835C131.786 70.575 131.406 70.21 131.106 69.74C130.806 69.26 130.586 68.685 130.446 68.015C130.306 67.335 130.236 66.58 130.236 65.75ZM132.216 65.75C132.216 66.28 132.246 66.775 132.306 67.235C132.366 67.685 132.466 68.075 132.606 68.405C132.746 68.735 132.921 68.995 133.131 69.185C133.351 69.375 133.621 69.47 133.941 69.47C134.521 69.47 134.956 69.175 135.246 68.585C135.536 67.995 135.681 67.05 135.681 65.75C135.681 65.24 135.651 64.76 135.591 64.31C135.531 63.85 135.431 63.455 135.291 63.125C135.161 62.785 134.986 62.52 134.766 62.33C134.546 62.13 134.271 62.03 133.941 62.03C132.791 62.03 132.216 63.27 132.216 65.75Z" fill="white"/>
</svg>
